HIERARCHY
ROOT Hips
{
	OFFSET 0.00000 0.00000 0.00000
	CHANNELS 6 Xposition Yposition Zposition Zrotation Yrotation Xrotation 
	JOINT LHipJoint
	{
		OFFSET 0 0 0
		CHANNELS 3 Zrotation Yrotation Xrotation
		JOINT LeftHip
		{
			OFFSET 1.55766 -1.60504 1.11378
			CHANNELS 3 Zrotation Yrotation Xrotation
			JOINT LeftKnee
			{
				OFFSET 2.29047 -6.29302 0.00000
				CHANNELS 3 Zrotation Yrotation Xrotation
				JOINT LeftAnkle
				{
					OFFSET 2.52265 -6.93093 0.00000
					CHANNELS 3 Zrotation Yrotation Xrotation
					JOINT LeftToe
					{
						OFFSET 0.17633 -0.48446 2.02656
						CHANNELS 3 Zrotation Yrotation Xrotation
						End Site
						{
							OFFSET 0.00000 -0.00000 1.04989
						}
					}
				}
			}
		}
	}
	JOINT RHipJoint
	{
		OFFSET 0 0 0
		CHANNELS 3 Zrotation Yrotation Xrotation
		JOINT RightHip
		{
			OFFSET -1.48599 -1.60504 1.11378
			CHANNELS 3 Zrotation Yrotation Xrotation
			JOINT RightKnee
			{
				OFFSET -2.27280 -6.24448 0.00000
				CHANNELS 3 Zrotation Yrotation Xrotation
				JOINT RightAnkle
				{
					OFFSET -2.50834 -6.89161 0.00000
					CHANNELS 3 Zrotation Yrotation Xrotation
					JOINT RightToe
					{
						OFFSET -0.26967 -0.74090 2.08741
						CHANNELS 3 Zrotation Yrotation Xrotation
						End Site
						{
							OFFSET -0.00000 -0.00000 1.10614
						}
					}
				}
			}
		}
	}
	JOINT lowerback
	{
		OFFSET 0 0 0
		CHANNELS 3 Zrotation Yrotation Xrotation
		JOINT Chest
		{
			OFFSET 0.06481 2.02437 -0.08472
			CHANNELS 3 Zrotation Yrotation Xrotation
			JOINT Chest2
			{
				OFFSET 0.00015 1.96711 0.18069
				CHANNELS 3 Zrotation Yrotation Xrotation
				JOINT lowerneck
				{
					OFFSET 0 0 0
					CHANNELS 3 Zrotation Yrotation Xrotation
					JOINT Neck
					{
						OFFSET -0.29961 1.68293 -0.13041
						CHANNELS 3 Zrotation Yrotation Xrotation
						JOINT Head
						{
							OFFSET 0.59697 1.61501 -0.14669
							CHANNELS 3 Zrotation Yrotation Xrotation
							End Site
							{
								OFFSET 0.22973 1.74906 -0.10148
							}
						}
					}
				}
				JOINT LeftCollar
				{
					OFFSET 0 0 0
					CHANNELS 3 Zrotation Yrotation Xrotation
					JOINT LeftShoulder
					{
						OFFSET 3.37968 1.02893 0.31147
CHANNELS 3 Zrotation Xrotation Yrotation
						JOINT LeftElbow
						{
OFFSET 0 -5.198070 -0.000000
CHANNELS 3 Zrotation Xrotation Yrotation
							JOINT LeftWrist
							{
OFFSET 0 -3.093700 -0.000000
CHANNELS 3 Zrotation Xrotation Yrotation
								JOINT lhand
								{
									OFFSET 0 0 0
CHANNELS 3 Zrotation Xrotation Yrotation
									JOINT LFingers
									{
OFFSET 0 -0.672630 -0.000000
CHANNELS 3 Zrotation Xrotation Yrotation
										End Site
										{
OFFSET 0 -0.542290 -0.000000
										}
									}
								}
								JOINT LThumb
								{
OFFSET 0 0.000000 0.000000
CHANNELS 3 Zrotation Xrotation Yrotation
									End Site
									{
OFFSET 0 -0.550570 0.550570
									}
								}
							}
						}
					}
				}
				JOINT RightCollar
				{
					OFFSET 0 0 0
					CHANNELS 3 Zrotation Yrotation Xrotation
					JOINT RightShoulder
					{
						OFFSET -3.38254 0.96355 -0.16120
CHANNELS 3 Zrotation Xrotation Yrotation
						JOINT RightElbow
						{
OFFSET 0 -5.452220 -0.000000
CHANNELS 3 Zrotation Xrotation Yrotation
							JOINT RightWrist
							{
OFFSET 0 -3.012840 -0.000000
CHANNELS 3 Zrotation Xrotation Yrotation
								JOINT rhand
								{
									OFFSET 0 0 0
CHANNELS 3 Zrotation Xrotation Yrotation
									JOINT RFingers
									{
OFFSET 0 -0.622300 -0.000000
CHANNELS 3 Zrotation Xrotation Yrotation
										End Site
										{
OFFSET 0 -0.501710 -0.000000
										}
									}
								}
								JOINT RThumb
								{
OFFSET 0 0.000000 0.000000
CHANNELS 3 Zrotation Xrotation Yrotation
									End Site
									{
OFFSET 0 -0.509370 0.509370
									}
								}
							}
						}
					}
				}
			}
		}
	}
}
MOTION
Frames: 7
Frame Time: 0.008333333333333333
-1.954600 15.799900 37.208000 -179.436000 -35.044300 -168.337000 0.000000 0.000000 0.000000 -22.147400 3.217300 -29.680900 3.020000 10.727400 31.365900 -0.397900 -24.480300 -14.463900 0.113500 2.171700 5.980300 0.000000 0.000000 0.000000 13.930700 9.506200 -4.847000 -0.746600 -5.519200 15.395500 0.030700 24.794900 -17.295300 -0.275300 3.374800 -9.323900 0.494500 2.829900 -9.703200 -1.531400 3.363200 -5.424500 -1.538300 1.492800 -0.075400 -27.563100 -2.064500 3.818100 36.691800 -8.017000 8.112800 18.554500 -5.006300 4.254800 -0.000000 -0.000000 0.000000 7.242200 11.896200 -42.256800 18.143700 -28.340800 4.617200 9.159900 -31.619300 11.456500 0.000000 0.000000 0.000000 -7.125000 0.000000 0.000000 -12.571800 18.530000 -8.122300 -0.000000 -0.000000 0.000000 -1.023400 8.127300 27.550500 -14.617900 -23.611200 -3.071300 -9.247200 22.511000 0.160200 0.000000 0.000000 0.000000 7.125000 0.000000 -0.000000 13.575300 29.990800 5.101200
-2.018042 15.782268 37.190773 -179.623883 -34.816898 -168.131401 0.000000 0.000000 0.000000 -22.496003 3.395149 -29.753462 3.061548 10.793979 31.588202 -0.379721 -24.668110 -14.756471 0.122037 2.251927 6.202492 0.000000 0.000000 0.000000 13.637041 11.027504 -4.711844 -0.835745 -5.831479 16.296237 -0.207907 23.520336 -18.013081 -0.344150 3.768990 -10.427664 0.367265 2.887527 -9.587316 -1.714954 3.437345 -5.555392 -1.658187 1.523039 -0.268901 -27.430750 -2.026956 4.100634 36.850839 -8.030901 7.919995 18.608428 -5.048595 4.151492 0.000000 0.000000 0.000000 7.627510 12.414164 -45.101808 19.231522 -29.705086 5.145168 14.649190 -39.288308 10.326300 0.000000 0.000000 0.000000 -7.125000 0.000000 0.000000 -8.770084 19.378897 -5.427507 0.000000 0.000000 0.000000 -0.786098 8.346748 27.344815 -14.750498 -23.797365 -3.124605 -9.307014 22.396854 0.129516 0.000000 0.000000 0.000000 7.125000 0.000000 0.000000 13.524972 29.961754 5.090943
-2.076533 15.763061 37.177364 -179.903604 -34.605433 -167.898905 0.000000 0.000000 0.000000 -22.924333 3.580115 -29.817127 3.099532 10.854419 31.790468 -0.389526 -24.922399 -14.898829 0.137081 2.385879 6.573276 0.000000 0.000000 0.000000 13.259650 12.589955 -4.939048 -0.999761 -6.362389 17.839819 -0.428232 22.347213 -18.754412 -0.430311 4.209419 -11.666558 0.028659 2.867306 -9.449809 -1.789135 3.437348 -5.552069 -1.551879 1.529359 -0.356253 -27.444180 -2.039569 4.179041 36.978534 -8.016983 7.642224 18.671926 -5.054573 4.063776 0.000000 0.000000 0.000000 7.701095 12.425183 -46.019524 19.582039 -30.135486 5.319919 16.506618 -41.680871 10.183037 0.000000 0.000000 0.000000 -7.125000 0.000000 0.000000 -7.457784 19.415665 -4.593401 0.000000 0.000000 0.000000 -0.788911 8.295487 27.339579 -14.875252 -23.971947 -3.175047 -9.281046 22.253650 0.112717 0.000000 0.000000 0.000000 7.125000 0.000000 0.000000 13.542699 29.944693 5.103654
-2.128200 15.743677 37.167688 -180.302441 -34.327147 -167.657486 0.000000 0.000000 0.000000 -23.497911 4.052805 -29.894134 3.115815 10.880272 31.877160 -0.466083 -25.496354 -14.836287 0.175429 2.697649 7.438258 0.000000 0.000000 0.000000 12.756700 14.244938 -5.658249 -1.286362 -7.186012 20.268025 -0.580197 21.448671 -19.257629 -0.509744 4.576443 -12.704237 -0.453609 2.860486 -9.133059 -1.914835 3.466244 -5.538145 -1.424135 1.554118 -0.535932 -27.365115 -2.054953 4.372770 37.105088 -8.007230 7.255940 18.707416 -5.071580 3.921015 0.000000 0.000000 0.000000 7.795493 12.286510 -46.136446 19.557812 -30.105852 5.307720 16.306054 -41.486380 10.318127 0.000000 0.000000 0.000000 -7.125000 0.000000 0.000000 -7.598469 19.288846 -4.703205 0.000000 0.000000 0.000000 -0.749243 8.212312 27.285520 -15.015769 -24.168080 -3.232425 -9.350642 22.097238 0.051205 0.000000 0.000000 0.000000 7.125000 0.000000 0.000000 13.480668 29.885418 5.098704
-2.177520 15.724378 37.156976 -180.795038 -33.806246 -167.479441 0.000000 0.000000 0.000000 -24.220442 4.969177 -29.902092 3.100479 10.855948 31.795624 -0.595637 -26.296647 -14.617587 0.231676 3.097274 8.549766 0.000000 0.000000 0.000000 12.077632 15.674058 -7.063622 -1.757885 -8.339697 23.752463 -0.572671 21.335450 -19.145659 -0.551595 4.757465 -13.218113 -1.054401 2.882978 -8.646801 -2.078336 3.541891 -5.473153 -1.272662 1.607770 -0.760682 -27.305292 -2.078934 4.490601 37.296748 -8.021287 6.906899 18.786686 -5.100946 3.817576 0.000000 0.000000 0.000000 7.928240 12.168926 -46.337081 19.650072 -30.218468 5.354138 16.491997 -41.820884 10.351985 0.000000 0.000000 0.000000 -7.125000 0.000000 0.000000 -7.466480 19.242407 -4.627910 0.000000 0.000000 0.000000 -0.709684 8.063341 27.316850 -15.186617 -24.405438 -3.302653 -9.386724 21.847847 0.007262 0.000000 0.000000 0.000000 7.125000 0.000000 0.000000 13.446843 29.842732 5.099354
-2.223703 15.709629 37.145710 -181.358636 -33.110231 -167.316454 0.000000 0.000000 0.000000 -25.057025 6.160190 -29.842224 3.045172 10.767821 31.500716 -0.766436 -27.215982 -14.258203 0.300318 3.523703 9.740226 0.000000 0.000000 0.000000 11.213276 16.851178 -9.273944 -2.481819 -9.803459 28.343552 -0.408026 21.794339 -18.291003 -0.635556 5.100493 -14.195367 -1.796820 2.898158 -8.071680 -2.244724 3.610754 -5.364654 -1.050737 1.663254 -1.000571 -27.247258 -2.120412 4.558729 37.510831 -8.075060 6.604071 18.879720 -5.150586 3.753687 0.000000 0.000000 0.000000 8.031054 12.030783 -46.508679 19.745721 -30.334789 5.402351 16.868522 -42.110174 10.305860 0.000000 0.000000 0.000000 -7.125000 0.000000 0.000000 -7.200318 19.266105 -4.456371 0.000000 0.000000 0.000000 -0.706419 7.815789 27.424230 -15.364171 -24.650912 -3.376347 -9.426302 21.593130 -0.008729 0.000000 0.000000 0.000000 7.125000 0.000000 0.000000 13.414114 29.827713 5.091229
-2.267776 15.702945 37.135449 -181.900720 -32.297138 -167.201040 0.000000 0.000000 0.000000 -25.895503 7.405398 -29.649028 2.949636 10.613034 30.985663 -0.935036 -28.007609 -13.840858 0.374799 3.931674 10.884522 0.000000 0.000000 0.000000 10.211162 17.996970 -12.272987 -3.533170 -11.508083 34.017892 -0.059740 22.548526 -16.325873 -0.776458 5.625779 -15.702465 -2.568871 2.915414 -7.445840 -2.420988 3.673447 -5.226666 -0.826655 1.717099 -1.242360 -27.203793 -2.172309 4.632487 37.823479 -8.195527 6.345023 19.036002 -5.246129 3.732651 0.000000 0.000000 0.000000 8.131482 11.886172 -46.623146 19.798331 -30.398600 5.428951 17.339075 -42.276047 10.180928 0.000000 0.000000 0.000000 -7.125000 0.000000 0.000000 -6.867339 19.365326 -4.231977 0.000000 0.000000 0.000000 -0.681985 7.481291 27.444111 -15.527389 -24.875653 -3.444745 -9.313682 21.476855 0.041376 0.000000 0.000000 0.000000 7.125000 0.000000 0.000000 13.507786 29.875021 5.112889
